<svg width="370" height="370" viewBox="0 0 370 370" fill="none" xmlns="http://www.w3.org/2000/svg">
<g clip-path="url(#clip0_971_6)">
<path d="M92.9763 166.965C92.9763 157.155 96.8733 147.747 103.81 140.81C110.747 133.874 120.155 129.977 129.965 129.977H314.905C324.715 129.977 334.123 133.874 341.06 140.81C347.997 147.747 351.894 157.155 351.894 166.965V277.929C351.894 287.739 347.997 297.147 341.06 304.084C334.123 311.021 324.715 314.917 314.905 314.917H129.965C120.155 314.917 110.747 311.021 103.81 304.084C96.8733 297.147 92.9763 287.739 92.9763 277.929V166.965Z" stroke="black" stroke-width="36.9882" stroke-linecap="round" stroke-linejoin="round"/>
<path d="M277.917 129.976V92.9882C277.917 83.1783 274.02 73.7702 267.084 66.8336C260.147 59.897 250.739 56 240.929 56H55.9882C46.1783 56 36.7702 59.897 29.8336 66.8336C22.897 73.7702 19 83.1783 19 92.9882V203.953C19 213.763 22.897 223.171 29.8336 230.107C36.7702 237.044 46.1783 240.941 55.9882 240.941H92.9764M185.447 222.447C185.447 232.257 189.344 241.665 196.28 248.601C203.217 255.538 212.625 259.435 222.435 259.435C232.245 259.435 241.653 255.538 248.59 248.601C255.526 241.665 259.423 232.257 259.423 222.447C259.423 212.637 255.526 203.229 248.59 196.292C241.653 189.356 232.245 185.459 222.435 185.459C212.625 185.459 203.217 189.356 196.28 196.292C189.344 203.229 185.447 212.637 185.447 222.447Z" stroke="black" stroke-width="36.9882" stroke-linecap="round" stroke-linejoin="round"/>
</g>
<defs>
<clipPath id="clip0_971_6">
<rect width="370" height="370" fill="white"/>
</clipPath>
</defs>
</svg>
