<svg width="371" height="370" viewBox="0 0 371 370" fill="none" xmlns="http://www.w3.org/2000/svg">
<path d="M323.959 10H28.3817C18.4556 10 10 18.4556 10 28.7493V62.2039C10 72.4976 18.4556 80.9532 28.3817 80.9532H323.959C334.253 80.9532 342.34 72.4976 342.708 62.2039V29.1169C342.708 18.4556 334.253 10 323.959 10ZM323.959 195.655H28.3817C23.6024 195.655 18.8232 197.493 15.5145 201.169C11.8382 204.846 10 209.257 10 214.404V247.859C10 258.152 18.4556 266.608 28.3817 266.608H323.959C334.253 266.608 342.34 258.52 342.708 247.859V214.404C342.34 203.743 334.253 195.655 323.959 195.655ZM194.92 288.298H28.3817C23.6024 288.298 18.8232 290.137 15.5145 293.813C12.2058 297.489 10 301.901 10 307.048V340.502C10 350.796 18.4556 359.252 28.3817 359.252H194.552C204.846 359.252 212.934 350.796 212.934 340.87V307.415C213.301 296.386 205.213 287.931 194.92 288.298ZM342.708 102.644H28.3817C23.6024 102.644 18.8232 104.482 15.5145 108.158C12.2058 111.834 10 116.246 10 121.393V154.848C10 165.141 18.4556 173.597 28.3817 173.597H342.34C352.634 173.597 360.722 165.141 360.722 154.848V121.393C361.09 111.099 352.634 103.011 342.708 102.644Z" fill="#00C3F7"/>
</svg>
