<svg width="25" height="24" viewBox="0 0 25 24" fill="none" xmlns="http://www.w3.org/2000/svg">
<path d="M12.6001 2C9.9801 2 7.8501 4.13 7.8501 6.75C7.8501 9.32 9.8601 11.4 12.4801 11.49C12.5601 11.48 12.6401 11.48 12.7001 11.49C12.7201 11.49 12.7301 11.49 12.7501 11.49C12.7601 11.49 12.7601 11.49 12.7701 11.49C15.3301 11.4 17.3401 9.32 17.3501 6.75C17.3501 4.13 15.2201 2 12.6001 2Z" fill="#121314"/>
<path d="M17.6801 14.15C14.8901 12.29 10.3401 12.29 7.53006 14.15C6.26006 15 5.56006 16.15 5.56006 17.38C5.56006 18.61 6.26006 19.75 7.52006 20.59C8.92006 21.53 10.7601 22 12.6001 22C14.4401 22 16.2801 21.53 17.6801 20.59C18.9401 19.74 19.6401 18.6 19.6401 17.36C19.6301 16.13 18.9401 14.99 17.6801 14.15Z" fill="#121314"/>
</svg>
